<mxfile host="app.diagrams.net" modified="2023-12-21T09:37:56.743Z" agent="Mozilla/5.0 (Windows NT 10.0; Win64; x64) AppleWebKit/537.36 (KHTML, like Gecko) Chrome/120.0.0.0 Safari/537.36" etag="xS8P1YJP4mgOpM86MW6C" version="22.1.11" type="device">
  <diagram id="C5RBs43oDa-KdzZeNtuy" name="Page-1">
    <mxGraphModel dx="1434" dy="780" grid="1" gridSize="10" guides="1" tooltips="1" connect="1" arrows="1" fold="1" page="1" pageScale="1" pageWidth="827" pageHeight="1169" math="0" shadow="0">
      <root>
        <mxCell id="WIyWlLk6GJQsqaUBKTNV-0" />
        <mxCell id="WIyWlLk6GJQsqaUBKTNV-1" parent="WIyWlLk6GJQsqaUBKTNV-0" />
        <mxCell id="UIGV9pGPV3TPOB1ojocK-3" style="edgeStyle=orthogonalEdgeStyle;rounded=0;orthogonalLoop=1;jettySize=auto;html=1;exitX=0.5;exitY=1;exitDx=0;exitDy=0;entryX=0.5;entryY=0;entryDx=0;entryDy=0;" parent="WIyWlLk6GJQsqaUBKTNV-1" source="WIyWlLk6GJQsqaUBKTNV-3" target="UIGV9pGPV3TPOB1ojocK-2" edge="1">
          <mxGeometry relative="1" as="geometry" />
        </mxCell>
        <mxCell id="UIGV9pGPV3TPOB1ojocK-18" style="edgeStyle=orthogonalEdgeStyle;rounded=0;orthogonalLoop=1;jettySize=auto;html=1;exitX=0.5;exitY=1;exitDx=0;exitDy=0;entryX=0.5;entryY=0;entryDx=0;entryDy=0;" parent="WIyWlLk6GJQsqaUBKTNV-1" source="WIyWlLk6GJQsqaUBKTNV-3" target="UIGV9pGPV3TPOB1ojocK-6" edge="1">
          <mxGeometry relative="1" as="geometry" />
        </mxCell>
        <mxCell id="WIyWlLk6GJQsqaUBKTNV-3" value="User/Public Timeline" style="rounded=1;whiteSpace=wrap;html=1;fontSize=12;glass=0;strokeWidth=1;shadow=0;" parent="WIyWlLk6GJQsqaUBKTNV-1" vertex="1">
          <mxGeometry x="245" y="110" width="120" height="40" as="geometry" />
        </mxCell>
        <mxCell id="UIGV9pGPV3TPOB1ojocK-10" style="edgeStyle=orthogonalEdgeStyle;rounded=0;orthogonalLoop=1;jettySize=auto;html=1;exitX=0.5;exitY=1;exitDx=0;exitDy=0;entryX=0.5;entryY=0;entryDx=0;entryDy=0;" parent="WIyWlLk6GJQsqaUBKTNV-1" source="UIGV9pGPV3TPOB1ojocK-0" target="UIGV9pGPV3TPOB1ojocK-8" edge="1">
          <mxGeometry relative="1" as="geometry" />
        </mxCell>
        <mxCell id="UIGV9pGPV3TPOB1ojocK-0" value="User info" style="shape=parallelogram;perimeter=parallelogramPerimeter;whiteSpace=wrap;html=1;fixedSize=1;" parent="WIyWlLk6GJQsqaUBKTNV-1" vertex="1">
          <mxGeometry x="132.5" y="290" width="120" height="50" as="geometry" />
        </mxCell>
        <mxCell id="UIGV9pGPV3TPOB1ojocK-4" style="edgeStyle=orthogonalEdgeStyle;rounded=0;orthogonalLoop=1;jettySize=auto;html=1;entryX=1;entryY=0.5;entryDx=0;entryDy=0;" parent="WIyWlLk6GJQsqaUBKTNV-1" source="UIGV9pGPV3TPOB1ojocK-2" target="WIyWlLk6GJQsqaUBKTNV-3" edge="1">
          <mxGeometry relative="1" as="geometry">
            <Array as="points">
              <mxPoint x="520" y="225" />
              <mxPoint x="520" y="130" />
            </Array>
          </mxGeometry>
        </mxCell>
        <mxCell id="UIGV9pGPV3TPOB1ojocK-9" value="Changes page" style="edgeLabel;html=1;align=center;verticalAlign=middle;resizable=0;points=[];" parent="UIGV9pGPV3TPOB1ojocK-4" vertex="1" connectable="0">
          <mxGeometry x="-0.2124" y="2" relative="1" as="geometry">
            <mxPoint y="-47" as="offset" />
          </mxGeometry>
        </mxCell>
        <mxCell id="UIGV9pGPV3TPOB1ojocK-2" value="Change Page" style="rounded=0;whiteSpace=wrap;html=1;" parent="WIyWlLk6GJQsqaUBKTNV-1" vertex="1">
          <mxGeometry x="355" y="200" width="110" height="50" as="geometry" />
        </mxCell>
        <mxCell id="UIGV9pGPV3TPOB1ojocK-5" value="&lt;font style=&quot;font-size: 17px;&quot;&gt;Non-authorized User Journey&lt;/font&gt;" style="text;html=1;strokeColor=none;fillColor=none;align=center;verticalAlign=middle;whiteSpace=wrap;rounded=0;" parent="WIyWlLk6GJQsqaUBKTNV-1" vertex="1">
          <mxGeometry x="170" width="270" height="30" as="geometry" />
        </mxCell>
        <mxCell id="UIGV9pGPV3TPOB1ojocK-7" style="edgeStyle=orthogonalEdgeStyle;rounded=0;orthogonalLoop=1;jettySize=auto;html=1;exitX=0.5;exitY=1;exitDx=0;exitDy=0;entryX=0.5;entryY=0;entryDx=0;entryDy=0;" parent="WIyWlLk6GJQsqaUBKTNV-1" source="UIGV9pGPV3TPOB1ojocK-6" target="UIGV9pGPV3TPOB1ojocK-0" edge="1">
          <mxGeometry relative="1" as="geometry" />
        </mxCell>
        <mxCell id="UIGV9pGPV3TPOB1ojocK-6" value="Register/Login" style="rounded=0;whiteSpace=wrap;html=1;" parent="WIyWlLk6GJQsqaUBKTNV-1" vertex="1">
          <mxGeometry x="140" y="200" width="105" height="50" as="geometry" />
        </mxCell>
        <mxCell id="UIGV9pGPV3TPOB1ojocK-11" style="edgeStyle=orthogonalEdgeStyle;rounded=0;orthogonalLoop=1;jettySize=auto;html=1;exitX=0;exitY=0.5;exitDx=0;exitDy=0;entryX=0;entryY=0.5;entryDx=0;entryDy=0;" parent="WIyWlLk6GJQsqaUBKTNV-1" source="UIGV9pGPV3TPOB1ojocK-8" target="WIyWlLk6GJQsqaUBKTNV-3" edge="1">
          <mxGeometry relative="1" as="geometry">
            <Array as="points">
              <mxPoint x="110" y="410" />
              <mxPoint x="110" y="130" />
            </Array>
          </mxGeometry>
        </mxCell>
        <mxCell id="UIGV9pGPV3TPOB1ojocK-14" value="No" style="edgeLabel;html=1;align=center;verticalAlign=middle;resizable=0;points=[];" parent="UIGV9pGPV3TPOB1ojocK-11" vertex="1" connectable="0">
          <mxGeometry x="-0.5042" y="-1" relative="1" as="geometry">
            <mxPoint x="22" y="64" as="offset" />
          </mxGeometry>
        </mxCell>
        <mxCell id="UIGV9pGPV3TPOB1ojocK-13" style="edgeStyle=orthogonalEdgeStyle;rounded=0;orthogonalLoop=1;jettySize=auto;html=1;exitX=0.5;exitY=1;exitDx=0;exitDy=0;entryX=0.5;entryY=0;entryDx=0;entryDy=0;" parent="WIyWlLk6GJQsqaUBKTNV-1" source="UIGV9pGPV3TPOB1ojocK-8" target="UIGV9pGPV3TPOB1ojocK-12" edge="1">
          <mxGeometry relative="1" as="geometry" />
        </mxCell>
        <mxCell id="UIGV9pGPV3TPOB1ojocK-15" value="Yes" style="edgeLabel;html=1;align=center;verticalAlign=middle;resizable=0;points=[];" parent="UIGV9pGPV3TPOB1ojocK-13" vertex="1" connectable="0">
          <mxGeometry x="-0.0833" y="-2" relative="1" as="geometry">
            <mxPoint x="-10" as="offset" />
          </mxGeometry>
        </mxCell>
        <mxCell id="UIGV9pGPV3TPOB1ojocK-8" value="&amp;nbsp;Login&amp;nbsp;&lt;br&gt;&amp;nbsp;Succesful?" style="rhombus;whiteSpace=wrap;html=1;" parent="WIyWlLk6GJQsqaUBKTNV-1" vertex="1">
          <mxGeometry x="148.13" y="370" width="88.75" height="80" as="geometry" />
        </mxCell>
        <mxCell id="UIGV9pGPV3TPOB1ojocK-25" style="edgeStyle=orthogonalEdgeStyle;rounded=0;orthogonalLoop=1;jettySize=auto;html=1;exitX=0.5;exitY=1;exitDx=0;exitDy=0;entryX=0.5;entryY=0;entryDx=0;entryDy=0;" parent="WIyWlLk6GJQsqaUBKTNV-1" source="UIGV9pGPV3TPOB1ojocK-12" target="UIGV9pGPV3TPOB1ojocK-23" edge="1">
          <mxGeometry relative="1" as="geometry" />
        </mxCell>
        <mxCell id="UIGV9pGPV3TPOB1ojocK-12" value="Public Timeline&lt;br&gt;(Logged in)" style="rounded=1;whiteSpace=wrap;html=1;" parent="WIyWlLk6GJQsqaUBKTNV-1" vertex="1">
          <mxGeometry x="146.5" y="490" width="92" height="40" as="geometry" />
        </mxCell>
        <mxCell id="UIGV9pGPV3TPOB1ojocK-17" value="Check Authorized User Journey Flowchart" style="text;html=1;align=center;verticalAlign=middle;resizable=0;points=[];autosize=1;strokeColor=none;fillColor=none;" parent="WIyWlLk6GJQsqaUBKTNV-1" vertex="1">
          <mxGeometry x="70" y="585" width="250" height="30" as="geometry" />
        </mxCell>
        <mxCell id="UIGV9pGPV3TPOB1ojocK-21" style="edgeStyle=orthogonalEdgeStyle;rounded=0;orthogonalLoop=1;jettySize=auto;html=1;exitX=0.5;exitY=1;exitDx=0;exitDy=0;entryX=0.5;entryY=0;entryDx=0;entryDy=0;" parent="WIyWlLk6GJQsqaUBKTNV-1" source="UIGV9pGPV3TPOB1ojocK-20" target="WIyWlLk6GJQsqaUBKTNV-3" edge="1">
          <mxGeometry relative="1" as="geometry" />
        </mxCell>
        <mxCell id="UIGV9pGPV3TPOB1ojocK-20" value="" style="ellipse;whiteSpace=wrap;html=1;aspect=fixed;fillStyle=solid;fillColor=#000000;strokeColor=#FFFFFF;" parent="WIyWlLk6GJQsqaUBKTNV-1" vertex="1">
          <mxGeometry x="290" y="40" width="30" height="30" as="geometry" />
        </mxCell>
        <mxCell id="UIGV9pGPV3TPOB1ojocK-23" value="" style="ellipse;whiteSpace=wrap;html=1;aspect=fixed;fillStyle=solid;fillColor=#FFFFFF;strokeColor=#000000;" parent="WIyWlLk6GJQsqaUBKTNV-1" vertex="1">
          <mxGeometry x="172.51" y="545" width="40" height="40" as="geometry" />
        </mxCell>
        <mxCell id="UIGV9pGPV3TPOB1ojocK-24" value="" style="ellipse;whiteSpace=wrap;html=1;aspect=fixed;fillStyle=solid;fillColor=#000000;strokeColor=#FFFFFF;" parent="WIyWlLk6GJQsqaUBKTNV-1" vertex="1">
          <mxGeometry x="177.51" y="550" width="30" height="30" as="geometry" />
        </mxCell>
      </root>
    </mxGraphModel>
  </diagram>
</mxfile>
